<?xml version="1.0" encoding="UTF-8"?>
<svg enable-background="new 0 0 415.56 291.24" version="1.1" viewBox="0 0 415.56 291.24" xml:space="preserve" xmlns="http://www.w3.org/2000/svg">
<style type="text/css">
	.st0{fill:#FFFDA5;}
	.st1{fill:#DF4800;}
</style>

	<path class="st0" d="m206.73 240.37c-72.47 0-131.43-48.87-131.43-108.93 0-1.34-0.01-2.65-0.02-3.92v-0.11c-0.07-10.11-0.14-20.55 4.81-32.14-0.35-5.45-0.99-15.6-1.21-20.23-0.61-12.86 0.67-37.81 16.06-60.43 2.71-3.99 8.13-8.74 18.52-8.74 6.22 0 12.65 1.73 16.94 3.04 8.49 2.58 16.03 5.97 16.86 6.35 0.21 0.1 0.4 0.19 0.59 0.28 4.71 2.41 12.49 6.66 18.74 11.4 11.32-3.19 27.93-7.18 40.11-7.18 14.81 0 28.45 3.96 40.67 7.86 6.31-4.03 14.59-9.17 18.98-11.33 8.75-4.3 21.96-10.8 33.59-10.8 10.31 0 15.85 4.96 18.68 9.13 15.39 22.62 16.66 47.57 16.06 60.43-0.12 2.55 0.29 7.6 0.65 12.06 0.31 3.78 0.59 7.35 0.68 10.42 1.22 5.95 4.27 22 4.27 33.28 0 29.7-14.5 57.57-40.84 78.48-25.23 20.04-58.15 31.08-92.71 31.08z"/>
	<path class="st0" d="m370.58 196.4c-3.84 0-7.48-0.74-10.83-2.21-11.84-5.18-16.01-17.1-18.37-26.71-2.66 1.64-5.81 3.17-9.53 4.33-4.29 1.34-8.84 2.02-13.52 2.02-5.08 0-10.39-0.8-15.78-2.38-3.84-1.13-7.02-3.68-8.94-7.2s-2.36-7.57-1.23-11.42c1.86-6.35 7.78-10.78 14.39-10.78 1.43 0 2.86 0.21 4.23 0.61 2.63 0.77 5.1 1.16 7.32 1.16 1.66 0 3.2-0.22 4.59-0.65 2.94-0.92 4.78-2.67 7.11-4.89 3.22-3.07 8.6-8.2 16.81-8.2 0.97 0 1.96 0.08 2.95 0.22 14.49 2.2 17.71 16.6 19.83 26.13 0.59 2.67 1.6 7.17 2.62 9.67 2.42-0.72 7.86-3.1 17.68-11.01 2.66-2.14 6-3.32 9.41-3.32 4.56 0 8.82 2.04 11.68 5.58 2.52 3.12 3.67 7.03 3.24 11.02-0.43 3.98-2.38 7.56-5.5 10.08-15.18 12.24-27.31 17.95-38.16 17.95z"/>
	<path class="st0" d="m358.71 235.28c-0.81 0-1.63-0.07-2.43-0.2-16.63-2.73-28.02-9.58-33.87-20.39-3.02-5.58-4.03-11.26-4.16-16.44-1.22 0.15-2.48 0.23-3.8 0.23-0.59 0-1.19-0.02-1.79-0.05-8.52-0.49-16.48-4.27-23.66-11.25-2.87-2.79-4.49-6.54-4.54-10.54-0.06-4.01 1.45-7.79 4.24-10.67 2.81-2.89 6.73-4.54 10.76-4.54 3.93 0 7.64 1.51 10.46 4.25 2.06 2 3.65 2.76 4.46 2.81 1.02 0 2.76-0.99 4.44-1.96 2.88-1.65 7.25-4.14 12.74-4.14 3.11 0 6.08 0.8 8.82 2.37 11.12 6.36 9.43 18.67 8.52 25.27-0.49 3.57-1.16 8.45-0.1 10.4 0.83 1.54 4.56 3.78 12.33 5.05 8.16 1.34 13.71 9.07 12.38 17.23-1.2 7.28-7.42 12.57-14.8 12.57z"/>
	<path class="st0" d="m45.05 196.4c-10.85 0-22.98-5.71-38.17-17.96-3.12-2.51-5.07-6.09-5.5-10.08-0.43-3.98 0.72-7.9 3.24-11.01 2.86-3.55 7.12-5.58 11.68-5.58 3.41 0 6.75 1.18 9.41 3.32 9.81 7.91 15.26 10.3 17.68 11.01 1.02-2.5 2.02-7 2.62-9.66 2.13-9.53 5.34-23.93 19.83-26.13 0.99-0.15 1.97-0.22 2.95-0.22 8.21 0 13.6 5.13 16.81 8.2 2.33 2.22 4.17 3.98 7.11 4.89 1.39 0.43 2.94 0.65 4.59 0.65 2.23 0 4.69-0.39 7.33-1.17 1.37-0.4 2.8-0.61 4.22-0.61 6.61 0 12.53 4.43 14.39 10.78 1.13 3.84 0.69 7.9-1.23 11.41-1.92 3.52-5.1 6.07-8.94 7.2-5.39 1.58-10.7 2.38-15.78 2.38-4.68 0-9.23-0.68-13.52-2.02-3.72-1.16-6.87-2.7-9.53-4.33-2.36 9.61-6.52 21.53-18.36 26.71-3.35 1.47-7 2.22-10.83 2.22z"/>
	<path class="st0" d="m56.92 235.28c-7.38 0-13.6-5.29-14.8-12.58-1.34-8.16 4.21-15.89 12.38-17.23 7.77-1.27 11.5-3.52 12.33-5.05 1.06-1.95 0.39-6.84-0.1-10.4-0.91-6.61-2.59-18.91 8.52-25.27 2.74-1.57 5.71-2.37 8.82-2.37 5.5 0 9.86 2.49 12.75 4.14 1.68 0.96 3.43 1.96 4.35 1.96 0.89-0.05 2.49-0.81 4.54-2.81 2.82-2.74 6.53-4.25 10.46-4.25 4.03 0 7.95 1.66 10.76 4.54 2.79 2.87 4.3 6.66 4.24 10.67s-1.67 7.75-4.54 10.54c-7.18 6.98-15.14 10.76-23.66 11.25-0.61 0.03-1.2 0.05-1.78 0.05-1.32 0-2.59-0.08-3.81-0.23-0.13 5.19-1.14 10.86-4.16 16.44-5.84 10.8-17.24 17.66-33.86 20.39-0.81 0.14-1.63 0.21-2.44 0.21z"/>
	<path class="st0" d="m121.78 287.18c-11.26 0-20.34-3.43-27-10.19-1.48-1.38-2.54-3.17-3.04-5.18l-0.3-1.19v-1.5c0-3.51 1.6-6.23 3.11-8.06-1.7-1.82-2.62-3.74-3.09-5.38l-0.1-0.29-0.15-0.65c-0.11-0.51-0.2-1.01-0.28-1.5l-0.02-0.14c-0.21-1.39-0.32-2.77-0.32-4.11 0-2.81 0.47-5.46 1.41-7.88 1.21-3.27 3.32-6.22 6.26-8.79l0.34-0.3 0.37-0.27c1.43-1.03 2.84-2.07 4.23-3.1 2.18-1.67 4.98-2.84 9.05-3.8 3.64-0.9 7.39-1.36 11.14-1.36 10.1 0 17.6 3.21 22.32 9.54l0.16 0.22c1.18 1.68 2.03 3.46 2.53 5.31l0.09 0.32 0.13 0.65 0.06 0.27 0.05 0.28c0.13 0.78 0.19 1.56 0.19 2.32 0 2.93-0.89 5.69-2.59 8.04 1.27 2.1 2.25 4.48 2.9 7.12 0.24 0.92 0.44 1.97 0.62 3.2l0.13 0.85c0.11 0.74 0.16 1.49 0.16 2.23 0 5.86-2.87 11.25-8.52 16.04-5.72 4.85-12.39 7.3-19.84 7.3z"/>
	<path class="st0" d="m147.86 287.18c-0.97 0-1.92-0.13-2.84-0.38-2.94-0.77-11.32-3.05-13.2-10.8l-0.11-0.44-0.07-0.39c-0.11-0.66-0.17-1.34-0.17-2.02v-0.3l0.02-0.3c0.22-3.68 0.95-9.13 2.23-16.67 2.09-11.95 3.99-19.92 11.24-22.23 2.06-0.65 4.95-1.28 9.12-1.98 4.73-0.81 8.14-1.19 10.68-1.19 5.6 0 8.58 2.48 10.13 4.8 1.3 1.86 2.24 3.89 2.8 6.05l0.08 0.34c0.11 0.48 0.19 0.96 0.25 1.43l0.04 0.36c0.05 0.56 0.07 1.04 0.07 1.44 0 2.56-0.76 4.95-2.16 6.9 0.27 0.61 0.49 1.27 0.65 1.98l0.25 1.1v1.36c0 2.09-0.58 4.05-1.64 5.72 1.15 1.74 1.92 3.42 2.34 5.12l0.1 0.41 0.07 0.41c0.15 0.75 0.22 1.45 0.22 2.16 0 3.31-1.45 6.34-3.99 8.37-1.59 1.29-3.27 2.14-12.88 5.36-8.56 2.88-11.09 3.39-13.23 3.39z"/>
	<path class="st0" d="m174.96 287.18c-2.44 0-4.77-0.5-6.96-1.48-3.67-1.55-6.4-4.36-7.73-7.92-0.21-0.56-0.38-1.14-0.51-1.72l-0.16-0.74-0.05-0.28c-0.11-0.66-0.16-1.28-0.16-1.9 0-0.82 0.07-1.66 0.22-2.49 0.19-1.21 0.75-3.97 3.42-15.21 3.56-15.2 4.4-16.96 5.57-18.76 1.98-3.08 5.44-4.95 9.23-4.95 4.85 0 8.47 3.04 9.66 4.04 2.1 1.78 4.17 3.82 5.16 6.78l0.51 1.54v11.62l-2.61 0.02c-0.13 0.73-0.26 1.55-0.41 2.48-1.18 7.38-2.29 13.57-3.31 18.4l-0.21 1-3.49 7.99-4.77 1.19c-1.05 0.26-2.16 0.39-3.4 0.39z"/>
	<path class="st0" d="m199.04 287.18c-9.51 0-17.21-2.91-22.91-8.65-1.4-1.29-2.43-2.96-2.97-4.84l-0.38-1.35v-1.61c0-2.25 0.66-4.38 1.97-6.37-0.94-1.3-1.51-2.61-1.85-3.77l-0.12-0.36-0.15-0.7c-0.09-0.45-0.17-0.88-0.23-1.3-0.19-1.22-0.29-2.43-0.29-3.62 0-2.47 0.42-4.82 1.26-6.98 1.08-2.93 2.95-5.57 5.57-7.85l0.35-0.3 0.37-0.27c1.13-0.82 2.24-1.63 3.34-2.45 1.97-1.5 4.42-2.54 7.94-3.38 3.09-0.77 6.25-1.16 9.4-1.16 10.92 0 16.62 4.6 19.49 8.47l0.07 0.09c1.13 1.56 1.94 3.25 2.41 5.02l0.18 0.66 0.02 0.15 0.09 0.32 0.09 0.89c0.05 0.53 0.08 1.03 0.08 1.52 0 2.34-0.59 4.56-1.74 6.53 0.81 1.54 1.45 3.22 1.91 5.04 0.24 0.88 0.43 1.86 0.58 2.97l0.06 0.4c0.12 0.74 0.19 1.49 0.19 2.23 0 3.63-1.3 9.06-7.5 14.35-4.94 4.15-10.87 6.32-17.23 6.32z"/>
	<path class="st0" d="m230.36 287.18c-1.98 0-3.9-0.18-5.71-0.55l-0.15-0.03c-5.29-1.14-9.89-4.12-13.67-8.87-3.03-3.81-5.19-8.26-6.43-13.26-0.28-1.15-0.51-2.26-0.69-3.32l-0.02-0.12c-0.23-1.51-0.35-3-0.35-4.42 0-2.88 0.47-5.63 1.4-8.17 2.24-6.29 4.19-10.65 6.12-13.63 6.72-10.25 15.24-12.39 21.2-12.39 5.8 0 11.18 1.41 15.99 4.18 5.47 3.16 8.85 7.21 10.06 12.04l0.3 1.19v1.23c0 4.34-1.94 8.31-5.48 11.3l0.07 0.08c2.56 2.7 4.32 5.95 5.25 9.66l0.08 0.33c0.09 0.44 0.17 0.86 0.24 1.27 0.15 0.86 0.22 1.73 0.22 2.59 0 1.69-0.28 3.33-0.84 4.85-1.82 5.17-5.89 9.37-12.06 12.39-4.86 2.41-10.1 3.65-15.53 3.65zm3.44-35.89c-0.62 1.03-1.19 2.08-1.69 3.12l2.67-1.18-0.98-1.94z"/>
	<path class="st0" d="m253.19 287.13c-10.53-1.05-13.36-7.71-14.08-10.53l-0.07-0.27-0.17-0.84-0.04-0.27c-0.09-0.6-0.13-1.23-0.13-1.85 0-0.74 0.05-1.5 0.16-2.23l0.05-0.38 0.08-0.37c1.14-5.16 4.85-11.64 12.01-21.02 9.04-11.8 13.83-15.59 19.72-15.59h0.2l0.38-0.03c0.94-0.07 1.5-0.09 1.68-0.09 5.03 0 8.7 3.3 9.91 4.38l0.11 0.1c2.62 2.42 3.7 5.66 4.4 8.52 0.46 1.78 0.88 3.82 1.24 6.07l0.02 0.14c0.46 3.23 0.85 7.08 1.13 11.46 0.25 3.52 0.37 6.21 0.37 8.16 0 2.55 0 8.42-5.41 11.45-2.09 1.21-4.51 1.81-7.38 1.81-5.78 0-8.97-2.61-10.63-4.81l-0.37-0.48-0.14-0.25c-0.46 0.1-0.92 0.22-1.38 0.36-0.4 0.12-0.72 0.23-0.98 0.33l-5.07 6.79-5.61-0.56z"/>
	<path class="st0" d="m288.89 287.18c-2.77 0-7.96-1-11.71-7.7-0.34-0.59-0.62-1.22-0.85-1.87-0.29-0.78-0.48-1.59-0.58-2.43-0.11-0.72-0.16-1.48-0.16-2.28 0-2.6 0.48-6.15 1.56-11.42-5.11-2.54-6.75-9-7.46-11.79l-0.08-0.34c-0.14-0.64-0.23-1.14-0.29-1.58l-1.64-9.84 20.53-3.49c7.72-1.26 12.94-1.84 16.49-1.84 0.93 0 1.73 0.04 2.46 0.11l0.22 0.02c3.64 0.44 8.42 2.72 10.55 11.01 0.22 0.83 0.38 1.57 0.5 2.27 0.16 0.84 0.24 1.65 0.24 2.44 0 3.48-1.51 6.57-4.17 8.55-2.04 1.56-3.73 2.02-9.82 2.73-0.31 1.13-0.75 2.97-1.25 5.83-0.5 3.45-0.99 6.89-1.46 10.34l-0.3 2.19-1.2 1.85c-3.88 5.99-8.43 7.24-11.58 7.24z"/>


	<path class="st1" d="m206.73 230.37c-66.95 0-121.43-44.38-121.43-98.93 0-1.41-0.01-2.77-0.02-4.1-0.07-10.55-0.14-19.71 4.96-30.21-0.28-4.26-1.11-17.22-1.37-22.56-0.55-11.61 0.58-34.12 14.34-54.33 4.61-6.78 16.07-4.25 24.29-1.76 8.04 2.44 15.32 5.74 15.63 5.88 0.07 0.03 0.14 0.06 0.21 0.1 3.8 1.95 15.09 7.96 20.94 13.57 7.93-2.38 28.93-8.27 42.43-8.27 14.71 0 28.79 4.53 41.21 8.53l0.9 0.29c4.79-3.1 16.81-10.79 21.96-13.32 11.29-5.55 32.23-15.84 39.59-5.02 13.75 20.22 14.89 42.72 14.34 54.33-0.15 3.2 0.27 8.37 0.67 13.37 0.32 3.99 0.63 7.77 0.66 10.71 0.69 3.29 4.25 20.87 4.25 32.16 0 26.58-13.16 51.67-37.06 70.65-23.47 18.64-54.19 28.91-86.5 28.91zm-95.4-204.28c-11.98 17.76-12.95 37.68-12.46 48.01 0.29 6.2 1.43 23.56 1.44 23.73 0.06 0.91-0.13 1.82-0.55 2.63-4.6 8.84-4.54 16.38-4.47 26.81 0.01 1.35 0.02 2.74 0.02 4.17 0 49.04 49.99 88.93 111.43 88.93 30.06 0 58.57-9.5 80.28-26.74 21.46-17.04 33.28-39.35 33.28-62.82 0-11.17-4.09-30.38-4.13-30.58-0.07-0.34-0.11-0.7-0.11-1.05 0-2.6-0.31-6.41-0.63-10.44-0.43-5.31-0.87-10.81-0.69-14.65 0.49-10.37-0.5-30.42-12.62-48.24-0.03-0.04-2.76-3.5-26.87 8.35-5.87 2.88-22.77 13.92-22.94 14.04-1.26 0.82-2.83 1.03-4.26 0.58l-3.18-1.02c-12.29-3.96-25-8.05-38.14-8.05-15 0-42.25 8.67-42.52 8.76-2.16 0.69-4.52-0.16-5.74-2.07-1.76-2.76-11.5-8.9-19.56-13.03-11.62-5.26-24.57-8.68-27.58-7.32z"/>
	<path class="st1" d="m108.09 80.82c-1.56-0.23 0.19-37.76 4.36-41.78 4.28-4.13 29.02 9.03 31.9 11.29 0.04 0.03-10.35 6.22-19.23 13.96-9.06 7.89-17.03 16.53-17.03 16.53z"/>
	<path class="st1" d="m306.08 80.82c1.56-0.23-0.19-37.76-4.36-41.78-4.28-4.13-29.02 9.03-31.9 11.29-0.04 0.03 10.35 6.22 19.23 13.96 9.06 7.89 17.03 16.53 17.03 16.53z"/>
	<path class="st1" d="m175.1 44.65s0.58 6.91 0.98 9.36c0.25 1.53 2.76 13.33 4.46 17.73 0.4 1.03 0.91 2.21 1.47 2.91 0.97 1.23 2.14 1.15 2.34 1.18 0.28 0.03 1.11 0.34 2.06-1.27 0.39-0.67 2.46-7.06 2.9-8.86 0.68-2.76 2.19-15.35 2.19-19.14 0-2.75-0.33-5.03-0.33-5.03l-16.07 3.12z"/>
	<path class="st1" d="m239.14 44.65s-0.58 6.91-0.98 9.36c-0.25 1.53-2.76 13.33-4.46 17.73-0.4 1.03-0.91 2.21-1.47 2.91-0.97 1.23-2.14 1.15-2.34 1.18-0.28 0.03-1.11 0.34-2.06-1.27-0.39-0.67-2.46-7.06-2.9-8.86-0.68-2.76-2.19-15.35-2.19-19.14 0-2.75 0.33-5.03 0.33-5.03l16.07 3.12z"/>
	<polyline class="st1" points="198.76 39.13 200.57 55.84 202.53 70.34 203.45 73.87 205.18 76.08 207.28 76.5 209.41 75 211.89 69.35 213.93 57.82 214.87 42.58 214.87 39.13"/>
	<path class="st1" d="m160.16 84.77c-0.38 0-0.77-0.06-1.16-0.17-2.26-0.68-5.96-1.72-7.11-1.89-1.24-0.18-4.33-0.13-6.07 0.02-1.38 0.12-5.6 0.96-7.93 1.45-2.16 0.46-4.28-0.92-4.74-3.08s0.92-4.28 3.08-4.74c0.67-0.14 6.57-1.39 8.87-1.59 1.93-0.17 5.78-0.29 7.93 0.02 2.16 0.31 7.29 1.85 8.29 2.15 2.11 0.64 3.31 2.87 2.67 4.99-0.52 1.73-2.11 2.84-3.83 2.84z"/>
	<path class="st1" d="m254.38 84.77c-1.72 0-3.3-1.11-3.83-2.84-0.64-2.11 0.55-4.35 2.67-4.99 1-0.3 6.13-1.84 8.29-2.15 2.15-0.31 6-0.2 7.93-0.02 2.3 0.21 8.21 1.45 8.87 1.59 2.16 0.46 3.54 2.58 3.08 4.74s-2.58 3.54-4.74 3.08c-2.34-0.5-6.56-1.33-7.93-1.45-1.74-0.16-4.84-0.2-6.07-0.02-1.15 0.17-4.85 1.2-7.11 1.89-0.39 0.11-0.78 0.17-1.16 0.17z"/>
	<path class="st1" d="m192.38 183.28c-1.33 0-2.24-0.08-2.27-0.08-4.27-0.45-9.17-5.29-9.38-5.5-1.66-1.66-3.86-5.83-4.72-7.55-1-1.97-0.2-4.38 1.77-5.37 1.97-1 4.38-0.21 5.37 1.77 1.2 2.36 2.71 4.94 3.25 5.5 1.44 1.44 3.82 3.03 4.61 3.2 1.94 0.2 5.19-0.16 6.06-0.57 1.15-0.92 4.35-5.58 6.92-10.09l3.61-6.33 3.41 6.45c2.09 3.96 4.83 8.09 5.87 8.83 1.26 0.85 5.21 1.92 6.42 1.73 1.75-0.28 5.49-2.18 6.25-3.04 0.65-0.74 2.14-3.74 3.07-5.98 0.85-2.04 3.18-3.01 5.23-2.16 2.04 0.85 3.01 3.19 2.16 5.23-0.58 1.39-2.61 6.1-4.45 8.2-2.25 2.56-7.76 5.14-11 5.66-3.45 0.55-9.46-1.2-12.15-3.01-1.64-1.11-3.44-3.43-5.01-5.82-1.82 2.74-3.94 5.58-5.65 6.83-2.47 1.79-6.74 2.1-9.37 2.1z"/>
	<path class="st1" d="m216.71 155.17c0 5.11-3.96 8.08-9.07 8.08s-9.43-2.97-9.43-8.08 4.14-9.25 9.25-9.25 9.25 4.14 9.25 9.25z"/>
	
		<path class="st1" d="m147.14 168c-5.33 0-13.39-1.1-21.11-6.41-10.73-7.39-14.13-18.2-15.1-22.58-1.16-4.55-2.52-13.61 1.27-23.68 1.72-4.56 5.99-13.1 15.35-19.09 7.49-4.79 14.83-5.79 18.54-5.96 7.75-0.36 13.81 1.83 16.73 3.17 2.76 1.26 8.11 4.25 12.93 10.07 2.1 2.53 5.9 7.97 7.83 15.93 1.07 4.41 1.94 11.34 0 19.3-0.73 3-2.96 12.14-11.31 19.71-8.15 7.38-17.48 9.09-22.32 9.45-0.83 0.05-1.77 0.09-2.81 0.09zm0.64-69.76c-0.44 0-0.88 0.01-1.33 0.03-2.91 0.13-8.68 0.92-14.59 4.71-7.41 4.74-10.81 11.54-12.17 15.17-3.03 8.06-1.92 15.32-0.99 18.93l0.03 0.14c0.75 3.41 3.4 11.97 11.84 17.78 7.21 4.96 14.86 5.22 18.77 4.92 3.82-0.28 11.17-1.62 17.55-7.4 6.53-5.92 8.26-13 8.91-15.67 1.56-6.39 0.86-11.97 0-15.52-1.61-6.64-4.88-11.1-6.21-12.71-3.94-4.76-8.37-7.11-10.09-7.9-2.11-0.96-6.29-2.48-11.72-2.48z"/>
		<path class="st1" d="m147.3 154.86c-3.41 0-6.1-0.7-7.28-1.07-3.21-1-9.18-3.65-13.04-10.09-3.08-5.14-3.15-9.98-3.19-12.86-0.05-3.66-0.16-12.23 6.38-18.87 3.62-3.67 8.43-5.88 14.29-6.56 1.79-0.21 6.55-0.76 11.78 1.53 4.29 1.88 6.74 4.72 8.53 6.79 2.04 2.37 5.13 5.94 6.2 11.46 1.12 5.8-0.65 10.48-1.6 12.99-1.18 3.14-3.65 9.66-10.73 13.72-3.98 2.29-8.01 2.96-11.34 2.96zm-17.51-24.1c0.04 2.58 0.08 6.11 2.33 9.86 2.94 4.91 7.75 6.84 9.69 7.45 1.74 0.54 7.88 2.06 13.85-1.36 5.21-2.99 7.09-7.96 8.1-10.63 0.84-2.23 2.12-5.61 1.32-9.74-0.76-3.95-3.02-6.57-4.84-8.67-1.65-1.91-3.36-3.89-6.4-5.22-3.74-1.64-7.2-1.24-8.68-1.07-1.67 0.19-6.74 0.78-10.71 4.81-4.79 4.84-4.7 11.41-4.66 14.57l-3 0.04 3-0.04z"/>
		<path class="st1" d="m136.23 137.42c-1.77-3.21-1.77-6.24-1.76-7.61 0.02-2.3 0.04-4.68 1.63-6.93 1.28-1.81 2.94-2.64 4.37-3.35 0.92-0.46 3.23-1.49 6.39-1.56 0.93-0.02 2.78-0.05 4.97 0.72 0.96 0.33 4.18 1.51 6.47 4.86 0.52 0.77 2.9 4.43 2 9.25-0.82 4.43-3.84 6.88-5.03 7.84-1.2 0.97-3.74 2.98-7.54 3.21-3.99 0.24-7.6-1.59-9.79-3.98-0.9-0.99-1.42-1.92-1.71-2.45z"/>
		<path class="st0" d="m141.96 132.03c-0.37-0.62-1.17-2.18-0.79-4.14 0.47-2.4 2.36-3.62 2.97-3.97 1.49-0.85 2.91-0.83 3.51-0.81 0.63 0.02 2.72 0.11 4.47 1.74 0.41 0.38 2.16 2.01 2.05 4.48-0.1 2.03-1.4 3.32-1.86 3.78-1.92 1.91-4.35 1.96-4.72 1.96-0.19-0.01-3.82-0.07-5.63-3.04z"/>
	
	
		
			<path class="st1" d="m268.09 167.96c-1.04 0-1.98-0.04-2.79-0.1-4.84-0.36-14.18-2.07-22.33-9.45-8.35-7.56-10.58-16.7-11.31-19.71-1.94-7.95-1.07-14.88 0-19.3 1.93-7.96 5.73-13.4 7.83-15.93 4.82-5.82 10.17-8.81 12.93-10.07 2.92-1.34 8.98-3.52 16.73-3.17 3.71 0.17 11.05 1.17 18.54 5.96 9.36 5.99 13.63 14.53 15.35 19.09 3.79 10.07 2.43 19.13 1.27 23.68-0.97 4.39-4.37 15.2-15.1 22.58-7.73 5.32-15.79 6.42-21.12 6.42zm-0.64-69.76c-5.43 0-9.61 1.52-11.71 2.48-1.72 0.79-6.15 3.14-10.09 7.9-1.33 1.61-4.61 6.08-6.21 12.71-0.86 3.55-1.56 9.13 0 15.52 0.65 2.67 2.38 9.76 8.91 15.67 6.38 5.77 13.73 7.11 17.55 7.4 3.91 0.29 11.56 0.04 18.77-4.92 8.45-5.81 11.09-14.37 11.84-17.78l0.03-0.14c0.93-3.61 2.04-10.87-0.99-18.93-1.37-3.63-4.76-10.43-12.17-15.17-5.92-3.79-11.68-4.57-14.59-4.71-0.46-0.02-0.9-0.03-1.34-0.03z"/>
			<path class="st1" d="m267.93 154.82c-3.33 0-7.36-0.66-11.34-2.95-7.08-4.06-9.55-10.58-10.73-13.72-0.95-2.51-2.72-7.19-1.6-12.99 1.06-5.52 4.15-9.09 6.19-11.46 1.8-2.08 4.25-4.92 8.54-6.8 5.23-2.29 9.99-1.74 11.78-1.53 5.86 0.68 10.67 2.88 14.29 6.56 6.55 6.64 6.43 15.21 6.38 18.87-0.04 2.89-0.1 7.72-3.19 12.87-3.86 6.44-9.83 9.08-13.04 10.09-1.18 0.36-3.87 1.06-7.28 1.06zm-0.43-43.66c-1.68 0-3.84 0.24-6.11 1.24-3.04 1.33-4.75 3.31-6.4 5.22-1.82 2.11-4.08 4.72-4.84 8.67-0.8 4.13 0.48 7.5 1.32 9.74 1.01 2.67 2.89 7.65 8.1 10.63 5.96 3.42 12.11 1.91 13.85 1.36 1.93-0.6 6.74-2.54 9.69-7.45 2.25-3.75 2.3-7.28 2.33-9.86l3 0.04-3-0.04c0.04-3.16 0.13-9.72-4.66-14.58-3.97-4.03-9.04-4.62-10.71-4.81-0.58-0.06-1.48-0.16-2.57-0.16z"/>
			<path class="st1" d="m279 137.38c1.77-3.21 1.77-6.24 1.76-7.61-0.02-2.3-0.04-4.68-1.63-6.93-1.28-1.81-2.94-2.64-4.37-3.35-0.92-0.46-3.23-1.49-6.39-1.56-0.93-0.02-2.78-0.05-4.97 0.72-0.96 0.33-4.18 1.51-6.47 4.86-0.52 0.77-2.9 4.43-2 9.25 0.82 4.43 3.84 6.88 5.03 7.84 1.2 0.97 3.74 2.98 7.54 3.21 3.99 0.24 7.6-1.59 9.79-3.98 0.9-0.99 1.42-1.92 1.71-2.45z"/>
			<path class="st0" d="m273.27 131.98c0.37-0.62 1.17-2.18 0.79-4.14-0.47-2.4-2.36-3.62-2.97-3.97-1.49-0.85-2.91-0.83-3.51-0.81-0.63 0.02-2.72 0.11-4.47 1.74-0.41 0.38-2.16 2.01-2.05 4.48 0.1 2.03 1.4 3.32 1.86 3.78 1.92 1.91 4.35 1.96 4.72 1.96 0.19 0 3.82-0.06 5.63-3.04z"/>
		
		<path class="st0" d="m292.47 117.15c0.35-0.55 1.08-1.96 0.73-3.71-0.43-2.15-2.19-3.24-2.75-3.55-1.38-0.77-2.7-0.74-3.25-0.73-0.59 0.02-2.52 0.1-4.14 1.56-0.38 0.34-2.01 1.8-1.9 4.01 0.09 1.81 1.29 2.98 1.72 3.39 1.78 1.71 4.03 1.75 4.37 1.75 0.18 0 3.55-0.05 5.22-2.72z"/>
	
	
		<path class="st1" d="m370.58 186.4c-2.46 0-4.73-0.46-6.82-1.37-9.14-4-11.64-15.22-13.66-24.24-0.78-3.48-2.05-9.18-3.32-10.6-0.7 0.42-1.99 1.64-2.95 2.56-3.19 3.04-7.55 7.2-14.95 9.51-7.11 2.22-15.01 2.08-23.51-0.41-2.65-0.78-4.17-3.55-3.39-6.2s3.56-4.17 6.2-3.39c6.57 1.92 12.53 2.08 17.72 0.46 5.17-1.61 8.28-4.58 11.03-7.2 2.99-2.85 6.39-6.08 11.36-5.33 7.72 1.17 9.68 9.94 11.57 18.42 1.6 7.17 3.41 15.29 7.91 17.25 2.98 1.31 10.64 1.35 28.43-12.99 2.15-1.73 5.3-1.4 7.03 0.75s1.4 5.3-0.75 7.03c-13.07 10.54-23.59 15.75-31.9 15.75z"/>
		<path class="st1" d="m358.71 225.28c-0.27 0-0.54-0.02-0.81-0.07-13.41-2.2-22.39-7.34-26.68-15.27-4.17-7.71-2.98-16.33-2.12-22.63 0.17-1.21 0.36-2.66 0.47-3.88-0.28 0.16-0.56 0.32-0.82 0.47-3.45 1.97-8.67 4.95-15.51 4.56-6.05-0.35-11.86-3.18-17.26-8.44-1.98-1.92-2.02-5.09-0.1-7.07 1.93-1.98 5.09-2.02 7.07-0.1 3.63 3.53 7.28 5.42 10.86 5.62 3.88 0.22 6.98-1.55 9.98-3.26 3.29-1.88 7.38-4.22 11.64-1.78 5.26 3.01 4.41 9.22 3.58 15.24-0.75 5.48-1.6 11.69 1.01 16.51 2.74 5.07 9.31 8.49 19.51 10.16 2.72 0.45 4.57 3.02 4.13 5.74-0.43 2.46-2.55 4.2-4.95 4.2z"/>
	
	
		<path class="st1" d="m45.05 186.4c-8.31 0-18.83-5.21-31.9-15.74-2.15-1.73-2.49-4.88-0.75-7.03 1.73-2.15 4.88-2.49 7.03-0.75 17.79 14.34 25.45 14.3 28.43 12.99 4.49-1.97 6.31-10.09 7.91-17.25 1.89-8.48 3.85-17.25 11.57-18.42 4.98-0.75 8.37 2.48 11.36 5.33 2.75 2.62 5.86 5.59 11.03 7.2 5.19 1.62 11.15 1.46 17.72-0.46 2.65-0.78 5.43 0.74 6.2 3.39 0.78 2.65-0.74 5.43-3.39 6.2-8.49 2.49-16.4 2.63-23.51 0.41-7.4-2.31-11.77-6.47-14.95-9.51-0.97-0.92-2.25-2.15-2.95-2.57-1.27 1.42-2.54 7.12-3.32 10.6-2.01 9.02-4.52 20.24-13.65 24.24-2.1 0.91-4.37 1.37-6.83 1.37z"/>
		<path class="st1" d="m56.92 225.28c-2.41 0-4.53-1.74-4.93-4.19-0.45-2.73 1.4-5.3 4.13-5.74 10.2-1.67 16.76-5.09 19.51-10.16 2.61-4.83 1.76-11.04 1.01-16.52-0.82-6.01-1.68-12.22 3.58-15.23 4.25-2.44 8.35-0.1 11.64 1.78 2.99 1.71 6.08 3.48 9.97 3.26 3.58-0.2 7.23-2.1 10.86-5.62 1.98-1.93 5.15-1.88 7.07 0.1 1.93 1.98 1.88 5.15-0.1 7.07-5.4 5.25-11.21 8.09-17.26 8.44-6.84 0.39-12.06-2.59-15.51-4.56-0.26-0.15-0.54-0.31-0.82-0.47 0.11 1.22 0.31 2.67 0.47 3.88 0.86 6.3 2.05 14.93-2.12 22.63-4.29 7.94-13.27 13.08-26.68 15.27-0.28 0.04-0.55 0.06-0.82 0.06z"/>
	
	
		<path class="st1" d="m138.75 241.17c0.04 0.2 0.08 0.38 0.12 0.56 0.04 0.23 0.06 0.46 0.06 0.67 0 0.94-0.31 1.77-0.94 2.49-0.88 1.04-1.94 1.55-3.19 1.55-1.88 0-3.2-1.11-3.98-3.34-0.31-0.84-1.4-1.6-3.27-2.29-1.87-0.68-3.78-1.03-5.76-1.03-1.95 0-3.47 0.38-4.54 1.14-1.66 0.96-3.33 1.91-5.01 2.87-1.76 1.17-2.64 2.33-2.64 3.49 0 0.12 0.01 0.23 0.03 0.35l0.03 0.23 0.06 0.26c0.41 1.15 2.54 1.73 6.39 1.73 0.7 0 3.18-0.1 7.44-0.29 0.47-0.02 0.93-0.03 1.38-0.03 8.03 0 12.9 3.49 14.62 10.46 0.16 0.61 0.3 1.37 0.44 2.29l0.12 0.73c0.04 0.27 0.06 0.55 0.06 0.82 0 2.79-1.66 5.6-4.98 8.41-3.89 3.28-8.35 4.92-13.39 4.92-8.65 0-15.35-2.48-20.1-7.44-0.12-0.08-0.2-0.2-0.23-0.35v-0.26c0-0.72 0.66-1.68 1.99-2.87 1.5-1.31 2.78-1.96 3.84-1.96 0.55 0 0.91 0.21 1.08 0.64 1.17 2.68 6.06 4.28 14.68 4.8 0.33 0.02 0.66 0.03 1 0.03 2.64 0 4.5-0.71 5.6-2.14 0.96-1.19 1.44-3.09 1.44-5.68 0-0.49-0.02-1.01-0.06-1.55l-0.03-0.29c-0.31-1.19-1.99-2.1-5.04-2.72-2.6-0.51-5.73-0.76-9.4-0.76-3.09 0-5.02 0.14-5.8 0.41-0.27 0.12-0.65 0.18-1.14 0.18-1.6 0-3.31-0.42-5.13-1.26-1.99-0.9-3.13-1.95-3.43-3.16l-0.03-0.09c-0.08-0.37-0.15-0.73-0.21-1.08-0.14-0.9-0.21-1.77-0.21-2.61 0-1.6 0.25-3.05 0.76-4.34 0.62-1.72 1.79-3.32 3.49-4.8 1.48-1.07 2.95-2.15 4.39-3.22 0.98-0.76 2.76-1.45 5.36-2.05 2.89-0.72 5.82-1.08 8.79-1.08 6.8 0 11.56 1.84 14.3 5.51 0.49 0.71 0.84 1.43 1.04 2.15z"/>
		<path class="st1" d="m141.47 273.14c0.19-3.28 0.9-8.48 2.11-15.59 1.6-9.16 3.08-13.96 4.42-14.38 1.54-0.49 4.12-1.04 7.73-1.64 4.1-0.7 7.11-1.05 9.02-1.05 1.07 0 1.69 0.14 1.85 0.41 0.66 0.92 1.13 1.9 1.41 2.96 0.04 0.18 0.07 0.34 0.09 0.5 0.02 0.21 0.03 0.4 0.03 0.56 0 0.62-0.19 1.07-0.56 1.35-0.43 0.33-3.04 0.76-7.82 1.29-4.59 0.55-6.9 0.94-6.91 1.19-0.02 0.24-0.18 1.21-0.47 2.89l-0.41 2.14 0.15 0.18c0-0.04 1.38-0.31 4.13-0.82 3.01-0.55 5.15-0.82 6.42-0.82 0.78 0 1.23 0.1 1.33 0.29 0.11 0.2 0.59 0.71 1.45 1.54s1.34 1.46 1.44 1.89v0.23c0 0.33-0.21 0.59-0.62 0.76-0.78 0.35-3.59 1.28-8.44 2.78-4.67 1.45-7.01 2.19-7.03 2.23-0.1 0.12-0.63 2.61-1.58 7.47 7.07-3.36 11.78-5.04 14.12-5.04 0.45 0 0.78 0.09 1 0.26 0.78 0.55 1.52 1.31 2.23 2.29s1.14 1.82 1.32 2.52c0.02 0.12 0.04 0.22 0.06 0.32s0.03 0.18 0.03 0.23c0 0.25-0.08 0.44-0.23 0.56-0.55 0.45-3.82 1.68-9.81 3.69-5.68 1.91-9.03 2.87-10.05 2.87-0.08 0-0.15-0.01-0.21-0.03-3.75-0.98-5.79-2.15-6.12-3.52l-0.03-0.12c-0.04-0.13-0.05-0.26-0.05-0.39z"/>
		<path class="st1" d="m177.83 241.73c0.8 0 1.88 0.57 3.22 1.7 1.25 1.05 1.95 1.82 2.11 2.29v0.06c0 0.02-0.01 0.03-0.03 0.03h-0.09c-0.7 0-1.63 3.61-2.78 10.84s-2.23 13.19-3.22 17.9l-1.11 2.55c-0.23 0.06-0.56 0.09-0.97 0.09-1.05 0-2.04-0.21-2.96-0.64-1.21-0.49-2-1.25-2.37-2.29-0.04-0.1-0.07-0.2-0.09-0.29-0.04-0.18-0.08-0.35-0.12-0.53-0.02-0.12-0.03-0.21-0.03-0.29 0-0.27 0.03-0.56 0.09-0.85 0.16-1.15 1.25-6 3.28-14.53 2.23-9.51 3.63-14.72 4.22-15.62 0.17-0.28 0.46-0.42 0.85-0.42z"/>
		<path class="st1" d="m212.63 248.38c0.02 0.16 0.05 0.3 0.09 0.44 0.02 0.2 0.03 0.37 0.03 0.53 0 0.76-0.24 1.43-0.73 1.99-0.7 0.84-1.55 1.26-2.55 1.26-1.5 0-2.57-0.89-3.19-2.67-0.25-0.68-1.13-1.3-2.62-1.85s-3.03-0.82-4.61-0.82c-1.56 0-2.77 0.3-3.63 0.91-1.33 0.78-2.66 1.55-3.98 2.31-1.41 0.94-2.11 1.87-2.11 2.78v0.29l0.03 0.18 0.06 0.21c0.33 0.92 2.03 1.38 5.1 1.38 0.57 0 2.55-0.08 5.95-0.23h1.11c6.43 0 10.32 2.78 11.69 8.35 0.14 0.49 0.25 1.1 0.35 1.85l0.09 0.59c0.04 0.21 0.06 0.43 0.06 0.64 0 2.23-1.33 4.47-3.98 6.74-3.11 2.62-6.68 3.93-10.72 3.93-6.91 0-12.27-1.98-16.05-5.95-0.1-0.06-0.17-0.16-0.21-0.29v-0.21c0-0.59 0.54-1.35 1.61-2.29 1.19-1.05 2.21-1.58 3.05-1.58 0.45 0 0.74 0.18 0.88 0.53 0.94 2.13 4.85 3.41 11.75 3.84 0.25 0.02 0.52 0.03 0.79 0.03 2.11 0 3.6-0.58 4.48-1.73 0.76-0.96 1.14-2.47 1.14-4.54 0-0.39-0.02-0.8-0.06-1.23v-0.23c-0.25-0.96-1.6-1.69-4.04-2.2-2.07-0.41-4.58-0.62-7.53-0.62-2.46 0-4 0.12-4.63 0.35-0.21 0.08-0.52 0.12-0.91 0.12-1.29 0-2.66-0.33-4.1-1-1.6-0.72-2.52-1.56-2.75-2.52l-0.03-0.09c-0.06-0.29-0.11-0.58-0.15-0.85-0.12-0.72-0.18-1.43-0.18-2.11 0-1.27 0.21-2.42 0.62-3.46 0.49-1.37 1.42-2.65 2.78-3.84 1.19-0.86 2.36-1.72 3.52-2.58 0.78-0.61 2.21-1.15 4.28-1.64 2.32-0.59 4.67-0.88 7.03-0.88 5.45 0 9.27 1.47 11.46 4.42 0.37 0.58 0.66 1.16 0.81 1.74z"/>
		<path class="st1" d="m220.72 256.17c-0.06 0.47-0.09 0.93-0.09 1.38 0 0.61 0.05 1.21 0.15 1.82 0.06 0.41 0.14 0.81 0.23 1.2 0.59 2.36 1.88 4.5 3.87 6.42 1.37 1.29 3.37 1.93 6.01 1.93s4.84-0.61 6.62-1.82c1.41-0.98 2.11-2.09 2.11-3.34 0-0.18-0.02-0.36-0.06-0.56-0.02-0.14-0.05-0.27-0.09-0.41-0.04-0.2-0.11-0.4-0.21-0.62l6.47-2.87c1.37 1.45 2.3 3.18 2.81 5.21 0.06 0.27 0.11 0.54 0.15 0.79 0.06 0.33 0.09 0.65 0.09 0.97 0 0.53-0.08 1.01-0.23 1.44-0.96 2.71-3.31 4.99-7.06 6.83-3.54 1.76-7.25 2.64-11.13 2.64-1.33 0-2.58-0.12-3.75-0.35-2.99-0.64-5.64-2.42-7.97-5.33-2.13-2.68-3.64-5.82-4.54-9.43-0.21-0.88-0.39-1.73-0.53-2.55-0.16-1.02-0.23-1.98-0.23-2.9 0-1.72 0.26-3.3 0.79-4.75 1.95-5.49 3.66-9.37 5.13-11.63 3.42-5.21 7.69-7.82 12.8-7.82 4.04 0 7.71 0.95 10.99 2.84 3.05 1.76 4.83 3.69 5.36 5.8v0.06c0 1.43-0.75 2.71-2.26 3.87-1.25 0.98-2.29 1.46-3.11 1.46-0.2 0-0.37-0.03-0.53-0.09-2.36-4.69-5.42-7.03-9.17-7.03-0.33 0-0.66 0.02-1 0.06-2.09 0.2-4.39 2.33-6.91 6.42-2.08 3.39-3.66 6.85-4.71 10.36z"/>
		<path class="st1" d="m254.18 277.18c-3.14-0.31-4.94-1.34-5.39-3.08-0.02-0.1-0.04-0.2-0.06-0.29-0.02-0.14-0.03-0.28-0.03-0.44 0-0.27 0.02-0.55 0.06-0.82 0.78-3.54 4.18-9.24 10.2-17.11 5.96-7.77 9.88-11.66 11.78-11.66h0.06c0.16 0.02 0.3 0.03 0.44 0.03 0.27 0 0.56-0.03 0.85-0.09 0.51-0.04 0.81-0.06 0.91-0.06 0.8 0 1.88 0.61 3.22 1.82 0.53 0.49 1.03 1.7 1.49 3.63 0.39 1.48 0.74 3.21 1.05 5.19 0.43 2.99 0.78 6.55 1.05 10.69 0.23 3.3 0.35 5.8 0.35 7.5 0 1.72-0.12 2.64-0.35 2.75-0.53 0.33-1.34 0.5-2.43 0.5-1.35 0-2.24-0.28-2.67-0.85-0.14-0.23-0.26-0.55-0.38-0.94-0.02-0.16-0.05-0.34-0.09-0.56-0.08-0.49-0.12-1.04-0.12-1.67 0-0.39 0.02-0.82 0.06-1.29-1.54-0.37-3.17-0.56-4.89-0.56-2.5 0-4.97 0.38-7.41 1.14-2.11 0.64-3.67 1.35-4.69 2.11l-3.01 4.06zm8.49-12.86 8.7-0.56c1.23-0.76 1.85-1.32 1.85-1.67v-0.09c-0.02-0.06-0.13-0.97-0.32-2.72-0.1-0.9-0.2-1.65-0.29-2.26s-0.19-1.07-0.26-1.41c-0.1-0.43-0.2-0.66-0.29-0.7-0.39-0.18-0.78-0.26-1.17-0.26-1.5 0-3.1 1.17-4.78 3.52-0.89 1.29-2.03 3.34-3.44 6.15z"/>
		<path class="st1" d="m306.15 242.67c0.8 0.1 1.49 1.3 2.08 3.6 0.16 0.59 0.26 1.08 0.32 1.49 0.06 0.27 0.09 0.51 0.09 0.7 0 0.29-0.06 0.48-0.18 0.56-0.27 0.21-3.54 0.65-9.81 1.32-1.09 1.15-1.64 1.84-1.64 2.05l0.06 0.06c-1.21 1.13-2.39 4.98-3.54 11.54-0.51 3.52-1.01 7.03-1.49 10.55-1.13 1.76-2.18 2.64-3.13 2.64-1.04 0-2.04-0.88-3.02-2.64-0.06-0.1-0.11-0.21-0.15-0.35-0.04-0.08-0.06-0.18-0.06-0.29-0.06-0.27-0.09-0.61-0.09-1 0-1.99 0.53-5.5 1.58-10.52 1.43-6.88 2.37-10.31 2.84-10.31h0.03l0.15-0.15c-0.08-0.12-0.25-0.29-0.53-0.53-0.12-0.06-0.25-0.16-0.41-0.29-1.21 0.1-2.27 0.2-3.16 0.29-2.19 0.29-3.52 0.64-3.98 1.05-0.1 0.06-0.18 0.09-0.23 0.09-0.76 0-1.59-1.77-2.49-5.3-0.1-0.45-0.16-0.76-0.18-0.94l-0.03-0.18c3.55-0.61 7.12-1.21 10.69-1.82 6.95-1.13 11.89-1.7 14.82-1.7 0.58 0.02 1.07 0.04 1.46 0.08z"/>
	

</svg>
